<svg xmlns="http://www.w3.org/2000/svg" xmlns:xlink="http://www.w3.org/1999/xlink" width="11520" zoomAndPan="magnify" viewBox="0 0 8640 3455.999975" height="4608" preserveAspectRatio="xMidYMid meet" version="1.0"><defs><g/><clipPath id="3a74c0bdb2"><rect x="0" width="8640" y="0" height="1087"/></clipPath></defs><rect x="-864" width="10368" fill="#ffffff" y="-345.599998" height="4147.19997" fill-opacity="1"/><rect x="-864" width="10368" fill="#ffffff" y="-345.599998" height="4147.19997" fill-opacity="1"/><g transform="matrix(1, 0, 0, 1, 0, 1183)"><g clip-path="url(#3a74c0bdb2)"><g fill="#35a5fc" fill-opacity="1"><g transform="translate(0.00003125, 814.510095)"><g><path d="M 86.8125 -775.890625 L 241.984375 -775.890625 L 241.984375 -155.171875 L 488.3125 -155.171875 L 488.3125 0 L 86.8125 0 Z M 86.8125 -775.890625 "/></g></g></g><g fill="#35a5fc" fill-opacity="1"><g transform="translate(534.978818, 814.510095)"><g><path d="M 460.109375 10.84375 C 393.546875 10.84375 335.125 -0.363281 284.84375 -22.78125 C 234.570312 -45.207031 192.796875 -75.410156 159.515625 -113.390625 C 126.234375 -151.378906 101.273438 -194.242188 84.640625 -241.984375 C 68.003906 -289.734375 59.6875 -338.75 59.6875 -389.03125 C 59.6875 -439.3125 68.003906 -488.320312 84.640625 -536.0625 C 101.273438 -583.8125 126.234375 -626.675781 159.515625 -664.65625 C 192.796875 -702.632812 234.570312 -732.835938 284.84375 -755.265625 C 335.125 -777.691406 393.546875 -788.90625 460.109375 -788.90625 C 526.660156 -788.90625 585.078125 -777.691406 635.359375 -755.265625 C 685.640625 -732.835938 727.414062 -702.632812 760.6875 -664.65625 C 793.96875 -626.675781 818.925781 -583.8125 835.5625 -536.0625 C 852.207031 -488.320312 860.53125 -439.3125 860.53125 -389.03125 C 860.53125 -338.75 852.207031 -289.734375 835.5625 -241.984375 C 818.925781 -194.242188 793.96875 -151.378906 760.6875 -113.390625 C 727.414062 -75.410156 685.640625 -45.207031 635.359375 -22.78125 C 585.078125 -0.363281 526.660156 10.84375 460.109375 10.84375 Z M 460.109375 -149.75 C 504.234375 -149.75 542.210938 -158.429688 574.046875 -175.796875 C 605.878906 -193.160156 631.195312 -216.128906 650 -244.703125 C 668.8125 -273.273438 681.472656 -304.5625 687.984375 -338.5625 C 694.492188 -372.570312 694.492188 -406.578125 687.984375 -440.578125 C 681.472656 -474.578125 668.8125 -505.863281 650 -534.4375 C 631.195312 -563.007812 605.878906 -585.976562 574.046875 -603.34375 C 542.210938 -620.707031 504.234375 -629.390625 460.109375 -629.390625 C 415.972656 -629.390625 377.988281 -620.707031 346.15625 -603.34375 C 314.332031 -585.976562 289.015625 -563.007812 270.203125 -534.4375 C 251.390625 -505.863281 238.726562 -474.578125 232.21875 -440.578125 C 225.707031 -406.578125 225.707031 -372.570312 232.21875 -338.5625 C 238.726562 -304.5625 251.390625 -273.273438 270.203125 -244.703125 C 289.015625 -216.128906 314.332031 -193.160156 346.15625 -175.796875 C 377.988281 -158.429688 415.972656 -149.75 460.109375 -149.75 Z M 460.109375 -149.75 "/></g></g></g><g fill="#35a5fc" fill-opacity="1"><g transform="translate(1454.100643, 814.510095)"><g><path d="M 580.5625 -595.75 C 566.09375 -603.707031 548.546875 -611.300781 527.921875 -618.53125 C 507.304688 -625.769531 480 -629.390625 446 -629.390625 C 401.863281 -629.390625 364.242188 -620.890625 333.140625 -603.890625 C 302.035156 -586.890625 277.078125 -564.28125 258.265625 -536.0625 C 239.453125 -507.851562 226.789062 -476.925781 220.28125 -443.28125 C 213.769531 -409.644531 213.769531 -376.003906 220.28125 -342.359375 C 226.789062 -308.722656 239.453125 -277.796875 258.265625 -249.578125 C 277.078125 -221.367188 302.035156 -198.765625 333.140625 -181.765625 C 364.242188 -164.765625 401.863281 -156.265625 446 -156.265625 C 480 -156.265625 509.835938 -160.242188 535.515625 -168.203125 C 561.203125 -176.160156 581.28125 -183.753906 595.75 -190.984375 L 616.375 -30.390625 C 592.5 -20.984375 565.003906 -13.203125 533.890625 -7.046875 C 502.785156 -0.898438 473.488281 2.171875 446 2.171875 C 380.164062 2.171875 322.648438 -8.859375 273.453125 -30.921875 C 224.265625 -52.992188 183.210938 -82.835938 150.296875 -120.453125 C 117.378906 -158.066406 92.78125 -200.203125 76.5 -246.859375 C 60.226562 -293.523438 52.09375 -341.816406 52.09375 -391.734375 C 52.09375 -441.648438 60.226562 -489.941406 76.5 -536.609375 C 92.78125 -583.273438 117.378906 -625.414062 150.296875 -663.03125 C 183.210938 -700.644531 224.265625 -730.484375 273.453125 -752.546875 C 322.648438 -774.617188 380.164062 -785.65625 446 -785.65625 C 502.425781 -785.65625 553.425781 -775.523438 599 -755.265625 Z M 580.5625 -595.75 "/></g></g></g><g fill="#35a5fc" fill-opacity="1"><g transform="translate(2107.360935, 814.510095)"><g><path d="M 17.359375 0 L 344 -804.09375 L 360.265625 -804.09375 L 686.90625 0 L 512.1875 0 L 480.71875 -83.5625 L 223.546875 -83.5625 L 193.15625 0 Z M 279.96875 -228.96875 L 423.203125 -228.96875 L 352.671875 -430.8125 Z M 279.96875 -228.96875 "/></g></g></g><g fill="#35a5fc" fill-opacity="1"><g transform="translate(2815.964002, 814.510095)"><g><path d="M 86.8125 -775.890625 L 241.984375 -775.890625 L 241.984375 -155.171875 L 488.3125 -155.171875 L 488.3125 0 L 86.8125 0 Z M 86.8125 -775.890625 "/></g></g></g><g fill="#35a5fc" fill-opacity="1"><g transform="translate(3350.942455, 814.510095)"><g><path d="M 488.3125 0 L 86.8125 0 L 86.8125 -775.890625 L 475.296875 -775.890625 L 475.296875 -620.703125 L 241.984375 -620.703125 L 241.984375 -465.53125 L 446 -465.53125 L 446 -310.359375 L 241.984375 -310.359375 L 241.984375 -155.171875 L 488.3125 -155.171875 Z M 488.3125 0 "/></g></g></g><g fill="#35a5fc" fill-opacity="1"><g transform="translate(3897.858097, 814.510095)"><g/></g></g><g fill="#a6a6a6" fill-opacity="1"><g transform="translate(4206.050204, 814.510095)"><g><path d="M 86.8125 -775.890625 L 241.984375 -775.890625 L 241.984375 -155.171875 L 488.3125 -155.171875 L 488.3125 0 L 86.8125 0 Z M 86.8125 -775.890625 "/></g></g></g><g fill="#a6a6a6" fill-opacity="1"><g transform="translate(4741.028991, 814.510095)"><g><path d="M 488.3125 0 L 86.8125 0 L 86.8125 -775.890625 L 475.296875 -775.890625 L 475.296875 -620.703125 L 241.984375 -620.703125 L 241.984375 -465.53125 L 446 -465.53125 L 446 -310.359375 L 241.984375 -310.359375 L 241.984375 -155.171875 L 488.3125 -155.171875 Z M 488.3125 0 "/></g></g></g><g fill="#a6a6a6" fill-opacity="1"><g transform="translate(5287.944633, 814.510095)"><g><path d="M 241.984375 -422.125 L 241.984375 0 L 86.8125 0 L 86.8125 -792.15625 L 128.046875 -792.15625 L 519.796875 -336.390625 L 519.796875 -774.796875 L 676.046875 -774.796875 L 676.046875 16.28125 L 634.8125 16.28125 Z M 241.984375 -422.125 "/></g></g></g><g fill="#a6a6a6" fill-opacity="1"><g transform="translate(6051.890142, 814.510095)"><g><path d="M 317.953125 -775.890625 C 382.335938 -775.890625 438.765625 -765.035156 487.234375 -743.328125 C 535.703125 -721.628906 576.03125 -692.332031 608.21875 -655.4375 C 640.414062 -618.539062 664.648438 -576.941406 680.921875 -530.640625 C 697.203125 -484.335938 705.34375 -436.769531 705.34375 -387.9375 C 705.34375 -339.101562 697.203125 -291.535156 680.921875 -245.234375 C 664.648438 -198.941406 640.414062 -157.347656 608.21875 -120.453125 C 576.03125 -83.554688 535.703125 -54.253906 487.234375 -32.546875 C 438.765625 -10.847656 382.335938 0 317.953125 0 L 86.8125 0 L 86.8125 -775.890625 Z M 317.953125 -620.703125 L 241.984375 -620.703125 L 241.984375 -155.171875 L 317.953125 -155.171875 C 361.359375 -155.171875 398.429688 -163.488281 429.171875 -180.125 C 459.921875 -196.769531 484.519531 -219.019531 502.96875 -246.875 C 521.414062 -274.726562 533.710938 -305.289062 539.859375 -338.5625 C 546.015625 -371.84375 546.015625 -404.941406 539.859375 -437.859375 C 533.710938 -470.773438 521.414062 -501.160156 502.96875 -529.015625 C 484.519531 -556.867188 459.921875 -579.113281 429.171875 -595.75 C 398.429688 -612.382812 361.359375 -620.703125 317.953125 -620.703125 Z M 317.953125 -620.703125 "/></g></g></g><g fill="#a6a6a6" fill-opacity="1"><g transform="translate(6815.835651, 814.510095)"><g><path d="M 241.984375 0 L 86.8125 0 L 86.8125 -775.890625 L 241.984375 -775.890625 Z M 241.984375 0 "/></g></g></g><g fill="#a6a6a6" fill-opacity="1"><g transform="translate(7145.720946, 814.510095)"><g><path d="M 241.984375 -422.125 L 241.984375 0 L 86.8125 0 L 86.8125 -792.15625 L 128.046875 -792.15625 L 519.796875 -336.390625 L 519.796875 -774.796875 L 676.046875 -774.796875 L 676.046875 16.28125 L 634.8125 16.28125 Z M 241.984375 -422.125 "/></g></g></g><g fill="#a6a6a6" fill-opacity="1"><g transform="translate(7909.666628, 814.510095)"><g><path d="M 646.75 -47.75 C 617.09375 -31.101562 585.441406 -18.257812 551.796875 -9.21875 C 518.160156 -0.175781 482.894531 4.34375 446 4.34375 C 382.332031 4.34375 326.082031 -6.503906 277.25 -28.203125 C 228.425781 -49.910156 187.375 -79.03125 154.09375 -115.5625 C 120.8125 -152.101562 95.671875 -193.34375 78.671875 -239.28125 C 61.671875 -285.21875 52.804688 -332.78125 52.078125 -381.96875 C 51.359375 -431.164062 58.773438 -478.914062 74.328125 -525.21875 C 89.878906 -571.519531 113.929688 -613.660156 146.484375 -651.640625 C 179.046875 -689.617188 220.285156 -720.363281 270.203125 -743.875 C 320.117188 -767.382812 378.71875 -780.222656 446 -782.390625 C 477.101562 -783.835938 505.492188 -782.390625 531.171875 -778.046875 C 556.859375 -773.710938 578.203125 -769.015625 595.203125 -763.953125 C 612.203125 -758.890625 622.875 -755.632812 627.21875 -754.1875 L 608.765625 -596.828125 C 593.578125 -603.347656 572.960938 -610.039062 546.921875 -616.90625 C 520.878906 -623.78125 487.238281 -626.492188 446 -625.046875 C 401.144531 -623.597656 362.984375 -613.832031 331.515625 -595.75 C 300.046875 -577.664062 275.085938 -554.515625 256.640625 -526.296875 C 238.191406 -498.085938 226.070312 -467.34375 220.28125 -434.0625 C 214.5 -400.78125 214.863281 -367.5 221.375 -334.21875 C 227.882812 -300.945312 240.722656 -270.382812 259.890625 -242.53125 C 279.066406 -214.675781 304.207031 -192.429688 335.3125 -175.796875 C 366.414062 -159.160156 403.3125 -150.84375 446 -150.84375 C 453.226562 -150.84375 460.457031 -151.382812 467.6875 -152.46875 C 474.925781 -153.550781 482.164062 -154.453125 489.40625 -155.171875 L 489.40625 -388.484375 L 646.75 -388.484375 Z M 646.75 -47.75 "/></g></g></g></g></g></svg>