<svg xmlns="http://www.w3.org/2000/svg" viewBox="0 0 32 32">
  <circle cx="16" cy="16" r="16" fill="#2775CA"/>
  <path fill="#fff" d="M20.022 18.124c0-2.124-1.28-2.852-3.84-3.156-1.828-.243-2.193-.728-2.193-1.578 0-.85.61-1.396 1.828-1.396 1.097 0 1.707.364 2.011 1.275a.458.458 0 0 0 .427.303h.975a.416.416 0 0 0 .427-.425v-.06a3.04 3.04 0 0 0-2.743-2.489v-1.517c0-.243-.183-.425-.487-.486h-.915c-.243 0-.426.182-.487.486v1.456c-1.828.243-2.986 1.456-2.986 2.974 0 2.002 1.218 2.791 3.778 3.095 1.707.303 2.255.668 2.255 1.639 0 .97-.853 1.638-2.011 1.638-1.585 0-2.133-.668-2.316-1.578-.06-.303-.244-.424-.487-.424h-1.036a.416.416 0 0 0-.426.424v.061c.244 1.578 1.219 2.73 3.169 3.034v1.517c0 .242.183.424.487.485h.915c.243 0 .426-.182.487-.485v-1.517c1.828-.303 3.047-1.578 3.047-3.217z"/>
  <path fill="#fff" d="M12.632 24.749c-4.87-1.699-7.414-7.07-5.653-11.807a8.779 8.779 0 0 1 5.653-5.532.435.435 0 0 0 .304-.424V6.08c0-.243-.122-.424-.366-.485-.06 0-.183 0-.243.06-5.775 1.76-9.004 7.858-7.23 13.57a10.64 10.64 0 0 0 7.23 7.108c.244.06.487-.06.548-.303.061-.06.061-.122.061-.243v-.91a.502.502 0 0 0-.304-.486v-.642zm6.98-18.73a.467.467 0 0 0-.549.304c-.06.06-.06.121-.06.242v.91c0 .243.182.425.365.486 4.87 1.7 7.414 7.07 5.653 11.808a8.779 8.779 0 0 1-5.653 5.532.435.435 0 0 0-.304.424v.91c0 .242.122.424.366.485.06 0 .182 0 .243-.06 5.775-1.76 9.004-7.859 7.23-13.571a10.703 10.703 0 0 0-7.23-7.108l-.061-.362z"/>
</svg>
